<svg xmlns="http://www.w3.org/2000/svg" width="720" height="360" viewBox="0 0 720 360">
  <rect width="720" height="360" fill="#ffffff"/>
  <text x="360" y="25" text-anchor="middle" font-family="sans-serif" font-size="17" font-weight="bold">Interaction depth shifts the 0.9 GB resolution boundary</text>
  <line x1="70" y1="300" x2="690" y2="300" stroke="#333" stroke-width="1.5"/>
  <line x1="70" y1="40" x2="70" y2="300" stroke="#333" stroke-width="1.5"/>
  <g font-family="sans-serif" font-size="12" fill="#444">
    <text x="55" y="304" text-anchor="end">0.86</text>
    <text x="55" y="239" text-anchor="end">0.88</text>
    <text x="55" y="174" text-anchor="end">0.90</text>
    <text x="55" y="109" text-anchor="end">0.92</text>
    <text x="55" y="44" text-anchor="end">0.94</text>
    <text x="90" y="320" text-anchor="middle">224</text>
    <text x="205" y="320" text-anchor="middle">256</text>
    <text x="320" y="320" text-anchor="middle">320</text>
    <text x="435" y="320" text-anchor="middle">384</text>
    <text x="550" y="320" text-anchor="middle">448</text>
    <text x="665" y="320" text-anchor="middle">512</text>
    <text x="380" y="347" text-anchor="middle">Input resolution (pixels per view)</text>
    <text x="17" y="170" text-anchor="middle" transform="rotate(-90 17 170)">Process VRAM (GB)</text>
  </g>
  <g stroke="#e2e2e2" stroke-width="1">
    <line x1="70" y1="235" x2="690" y2="235"/>
    <line x1="70" y1="170" x2="690" y2="170"/>
    <line x1="70" y1="105" x2="690" y2="105"/>
  </g>
  <line x1="70" y1="170" x2="690" y2="170" stroke="#dc2626" stroke-width="2" stroke-dasharray="8 6"/>
  <text x="685" y="161" text-anchor="end" font-family="sans-serif" font-size="11" fill="#991b1b">paper: 0.9 GB</text>
  <polyline points="90,238.6 205,238.6 320,238.6 435,225.9 550,213.2 665,143.3" fill="none" stroke="#059669" stroke-width="3"/>
  <g fill="#059669" stroke="#ffffff" stroke-width="2">
    <circle cx="90" cy="238.6" r="6"/>
    <circle cx="205" cy="238.6" r="6"/>
    <circle cx="320" cy="238.6" r="6"/>
    <circle cx="435" cy="225.9" r="6"/>
    <circle cx="550" cy="213.2" r="6"/>
    <circle cx="665" cy="143.3" r="7"/>
  </g>
  <g font-family="sans-serif" font-size="11" fill="#065f46">
    <text x="90" y="259" text-anchor="middle">0.879</text>
    <text x="205" y="259" text-anchor="middle">0.879</text>
    <text x="320" y="259" text-anchor="middle">0.879</text>
    <text x="435" y="246" text-anchor="middle">0.883</text>
    <text x="550" y="234" text-anchor="middle">0.887</text>
    <text x="665" y="133" text-anchor="middle">0.908</text>
  </g>
  <polyline points="205,200.5 550,156.0 665,86.2" fill="none" stroke="#7c3aed" stroke-width="3"/>
  <g fill="#7c3aed" stroke="#ffffff" stroke-width="2">
    <circle cx="205" cy="200.5" r="6"/>
    <circle cx="550" cy="156.0" r="7"/>
    <circle cx="665" cy="86.2" r="7"/>
  </g>
  <g font-family="sans-serif" font-size="11" fill="#5b21b6">
    <text x="205" y="190" text-anchor="middle">0.891</text>
    <text x="550" y="145" text-anchor="middle">0.904</text>
    <text x="665" y="75" text-anchor="middle">0.926</text>
  </g>
  <g font-family="sans-serif" font-size="11">
    <line x1="85" y1="52" x2="110" y2="52" stroke="#059669" stroke-width="3"/><text x="117" y="56" fill="#065f46">N2</text>
    <line x1="155" y1="52" x2="180" y2="52" stroke="#7c3aed" stroke-width="3"/><text x="187" y="56" fill="#5b21b6">N6</text>
  </g>
</svg>
